<?xml version="1.0" standalone="no"?>
<!DOCTYPE svg PUBLIC "-//W3C//DTD SVG 20010904//EN"
 "http://www.w3.org/TR/2001/REC-SVG-20010904/DTD/svg10.dtd">
<svg version="1.0" xmlns="http://www.w3.org/2000/svg"
 width="315.000000pt" height="315.000000pt" viewBox="0 0 315.000000 315.000000"
 preserveAspectRatio="xMidYMid meet">

<g transform="translate(0.000000,315.000000) scale(0.100000,-0.100000)"
fill="#000000" stroke="none">
<path d="M1245 3126 c-331 -70 -611 -226 -842 -470 -161 -170 -282 -374 -360
-606 l-38 -115 0 -360 0 -360 38 -115 c189 -564 647 -969 1222 -1080 151 -29
459 -29 610 0 492 95 909 412 1130 858 57 116 106 254 130 370 21 104 21 550
0 654 -128 616 -632 1106 -1260 1228 -158 30 -475 28 -630 -4z m1266 -942 c57
-42 108 -80 113 -85 11 -10 -102 -357 -118 -361 -6 -2 -80 -38 -164 -81 l-153
-78 108 -80 c85 -64 107 -85 105 -102 -1 -12 -22 -83 -46 -157 -24 -74 -47
-147 -50 -163 -6 -23 -29 -38 -176 -112 l-170 -85 -633 0 c-349 0 -636 2 -639
5 -3 4 5 36 17 73 13 37 51 155 85 262 114 362 231 723 236 729 5 6 224 -160
224 -170 0 -5 -11 -41 -24 -81 -13 -40 -53 -167 -90 -283 -37 -115 -71 -220
-77 -233 -5 -13 -9 -25 -9 -27 0 -3 224 -5 498 -5 l497 0 56 170 c33 101 52
170 45 171 -6 1 -164 3 -351 5 -294 3 -340 5 -339 18 1 8 14 56 29 105 l28 91
358 0 357 0 41 130 c23 71 44 137 47 145 5 13 -92 15 -875 15 -485 0 -881 3
-881 8 1 4 76 62 167 130 l167 122 756 0 757 0 104 -76z"/>
</g>
</svg>
